        <svg width="286" height="404" viewBox="0 0 286 404" fill="none" xmlns="http://www.w3.org/2000/svg">
            <path d="M104.673 16.3074H94.8516V126.149H104.673V16.3074Z" fill="#9299A1"/>
            <path d="M180.227 126.149H190.049L190.049 16.7114H180.227V126.149Z" fill="#9299A1"/>
            <path d="M184.006 0.29541H147.741H137.164H100.898C95.8912 0.29541 91.832 3.97015 91.832 8.50321V20.8152L108.454 21.1571C108.454 21.1571 107.698 12.6074 114.498 12.6074C118.443 12.6074 128.994 12.6074 137.164 12.6074C143.075 12.6074 147.741 12.6074 147.741 12.6074C155.91 12.6074 166.462 12.6074 170.407 12.6074C177.207 12.6074 176.452 21.1571 176.452 21.1571L193.073 20.8152V8.50321C193.073 3.97015 189.013 0.29541 184.006 0.29541Z" fill="#5E696B"/>
            <path d="M274.796 160.74C274.796 160.74 286 181.538 286 207.53C286 233.521 274.154 257.238 274.154 257.238L272.6 181.15L274.796 160.74Z" fill="#5E696B"/>
            <path d="M218.778 373.054H262.598C262.598 373.054 274.687 367.583 273.176 351.167L215 352.535L218.778 373.054Z" fill="#828A8D"/>
            <path d="M264.846 372.028H256.535V389.47H264.846V372.028Z" fill="#5E696B"/>
            <path d="M268 387C268 377.611 260.389 370 251 370C241.611 370 234 377.611 234 387C234 396.389 241.611 404 251 404C260.389 404.001 268 396.389 268 387Z" fill="#181E2A"/>
            <path d="M251 372C250.448 372 250 373.343 250 375C250 376.657 250.448 378 251 378C251.552 378 252 376.657 252 375C252 373.343 251.552 372 251 372Z" fill="#5E696B"/>
            <path d="M251 396C250.448 396 250 397.343 250 399C250 400.657 250.448 402 251 402C251.552 402 252 400.657 252 399C252 397.343 251.552 396 251 396Z" fill="#5E696B"/>
            <path d="M261.608 376.393C261.217 376.003 259.951 376.636 258.78 377.808C257.608 378.979 256.975 380.246 257.365 380.636C257.756 381.027 259.022 380.393 260.194 379.222C261.365 378.05 261.998 376.784 261.608 376.393Z" fill="#5E696B"/>
            <path d="M244.637 393.364C244.247 392.973 242.98 393.606 241.809 394.778C240.637 395.95 240.004 397.216 240.395 397.607C240.785 397.997 242.051 397.364 243.223 396.192C244.395 395.021 245.028 393.754 244.637 393.364Z" fill="#5E696B"/>
            <path d="M266.002 387C266.002 386.448 264.659 386 263.002 386C261.345 386 260.002 386.448 260.002 387C260.002 387.553 261.345 388 263.002 388C264.659 388.001 266.002 387.553 266.002 387Z" fill="#5E696B"/>
            <path d="M242.002 387C242.002 386.448 240.659 386 239.002 386C237.345 386 236.002 386.448 236.002 387C236.002 387.553 237.345 388 239.002 388C240.659 388.001 242.002 387.553 242.002 387Z" fill="#5E696B"/>
            <path d="M261.608 397.608C261.998 397.218 261.365 395.952 260.194 394.78C259.022 393.608 257.756 392.975 257.365 393.366C256.975 393.756 257.608 395.023 258.779 396.194C259.951 397.366 261.217 397.999 261.608 397.608Z" fill="#5E696B"/>
            <path d="M244.637 380.638C245.028 380.247 244.395 378.981 243.223 377.81C242.051 376.638 240.785 376.005 240.394 376.395C240.004 376.786 240.637 378.052 241.809 379.224C242.98 380.395 244.247 381.029 244.637 380.638Z" fill="#5E696B"/>
            <path d="M257 387C257 383.686 254.314 381 251 381C247.686 381 245 383.686 245 387C245 390.314 247.686 393 251 393C254.314 393.001 257 390.314 257 387Z" fill="#5E696B"/>
            <path d="M63.2493 373.055H19.4289C19.4289 373.055 7.34028 367.583 8.85143 351.167L67.0269 352.535L63.2493 373.055Z" fill="#828A8D"/>
            <path d="M27.7427 372.028H19.4316V389.47H27.7427V372.028Z" fill="#5E696B"/>
            <path d="M50 387C50 377.611 42.3893 370 33 370C23.6107 370 16 377.611 16 387C16 396.389 23.6107 404 33 404C42.3893 404.001 50 396.389 50 387Z" fill="#181E2A"/>
            <path d="M33 372C32.4477 372 32 373.343 32 375C32 376.657 32.4477 378 33 378C33.5523 378 34 376.657 34 375C34.0001 373.343 33.5523 372 33 372Z" fill="#5E696B"/>
            <path d="M33 396C32.4477 396 32 397.343 32 399C32 400.657 32.4477 402 33 402C33.5523 402 34 400.657 34 399C34.0001 397.343 33.5523 396 33 396Z" fill="#5E696B"/>
            <path d="M43.608 376.393C43.2174 376.003 41.9512 376.636 40.7795 377.808C39.6079 378.979 38.9748 380.246 39.3653 380.636C39.7559 381.027 41.0221 380.393 42.1937 379.222C43.3654 378.05 43.9985 376.784 43.608 376.393Z" fill="#5E696B"/>
            <path d="M26.6372 393.364C26.2467 392.973 24.9805 393.606 23.8088 394.778C22.6372 395.95 22.0041 397.216 22.3946 397.607C22.7852 397.997 24.0514 397.364 25.223 396.192C26.3947 395.021 27.0278 393.754 26.6372 393.364Z" fill="#5E696B"/>
            <path d="M48.002 387C48.002 386.448 46.6589 386 45.002 386C43.345 386 42.002 386.448 42.002 387C42.002 387.553 43.345 388 45.002 388C46.6589 388.001 48.002 387.553 48.002 387Z" fill="#5E696B"/>
            <path d="M24.002 387C24.002 386.448 22.6589 386 21.002 386C19.345 386 18.002 386.448 18.002 387C18.002 387.553 19.345 388 21.002 388C22.6589 388.001 24.002 387.553 24.002 387Z" fill="#5E696B"/>
            <path d="M43.6078 397.608C43.9983 397.218 43.3652 395.952 42.1936 394.78C41.022 393.608 39.7557 392.975 39.3652 393.366C38.9746 393.756 39.6077 395.023 40.7794 396.194C41.9509 397.366 43.2173 397.999 43.6078 397.608Z" fill="#5E696B"/>
            <path d="M26.6371 380.638C27.0276 380.247 26.3945 378.981 25.2229 377.81C24.0512 376.638 22.785 376.005 22.3945 376.395C22.0039 376.786 22.637 378.052 23.8087 379.224C24.9802 380.395 26.2466 381.029 26.6371 380.638Z" fill="#5E696B"/>
            <path d="M39 387C39 383.686 36.3139 381 33 381C29.6861 381 27 383.686 27 387C27 390.314 29.6861 393 33 393C36.3139 393.001 39 390.314 39 387Z" fill="#5E696B"/>
            <path d="M236.948 32.833H144.717H136.073H43.8428C22.593 32.833 5.36719 48.4282 5.36719 67.6653V348.92C5.36719 348.92 6.0849 359.488 21.9449 359.887C42.344 360.4 57.8326 357.322 59.3437 368.095C61.5566 383.871 75.2099 383.752 75.2099 383.752H139.851H140.942H205.583C205.583 383.752 219.236 383.871 221.449 368.095C222.96 357.322 238.448 360.4 258.848 359.887C274.708 359.488 275.425 348.92 275.425 348.92V67.6658C275.424 48.4282 258.198 32.833 236.948 32.833Z" fill="#42BA8E"/>
            <path d="M233.491 53.6335H48.3867C37.3287 53.6335 28.3652 61.6818 28.3652 71.6102V360.145C45.5208 360.093 57.9938 358.695 59.3417 368.225C61.5546 383.871 75.2079 383.754 75.2079 383.754H139.849H140.94H205.581C205.581 383.754 219.234 383.871 221.447 368.225C222.823 358.493 235.797 360.157 253.513 360.147V71.6102C253.513 61.6818 244.549 53.6335 233.491 53.6335Z" fill="#81DBBA"/>
            <path d="M274.669 80.9922H5.70117V87.1482H274.669V80.9922Z" fill="#42BA8E"/>
            <path d="M274.669 131.608H5.70117V137.764H274.669V131.608Z" fill="#42BA8E"/>
            <path d="M274.669 182.223H5.70117V188.379H274.669V182.223Z" fill="#42BA8E"/>
            <path d="M274.669 232.838H5.70117V238.994H274.669V232.838Z" fill="#42BA8E"/>
            <path d="M274.669 283.452H5.70117V289.608H274.669V283.452Z" fill="#42BA8E"/>
            <path d="M274.669 334.067H5.70117V340.223H274.669V334.067Z" fill="#42BA8E"/>
            <g opacity="0.42">
            <path d="M246.712 46.1094H35.1643C32.6607 46.1094 30.6309 44.2717 30.6309 42.0058C30.6309 39.7398 32.6601 37.9016 35.1643 37.9016H246.712C249.215 37.9016 251.245 39.7392 251.245 42.0058C251.245 44.2723 249.215 46.1094 246.712 46.1094Z" fill="#81DBBA"/>
            </g>
            <path d="M6.07848 123.4V95.6987C2.94898 95.6987 0.412109 97.9954 0.412109 100.829V118.27C0.412109 121.103 2.94898 123.4 6.07848 123.4Z" fill="#5E696B"/>
            <path d="M6.07848 318.335V290.634C2.94898 290.634 0.412109 292.931 0.412109 295.764V313.206C0.412109 316.039 2.94898 318.335 6.07848 318.335Z" fill="#5E696B"/>
        </svg>